<svg id="Bold" xmlns="http://www.w3.org/2000/svg" viewBox="0 0 24 24"><title>visibility-cloud-low</title><path d="M17,11.5A6.5,6.5,0,0,0,4.543,8.9a.249.249,0,0,1-.2.147A5,5,0,0,0,5,19h8.5A4.505,4.505,0,0,0,18,14.5a4.461,4.461,0,0,0-.948-2.763A.254.254,0,0,1,17,11.58Zm-1,3A2.5,2.5,0,0,1,13.5,17H5a3,3,0,0,1,0-6l.154,0a.989.989,0,0,0,1.013-.727A4.5,4.5,0,0,1,15,11.5c0,.145-.007.289-.021.43a1,1,0,0,0,.289.8A2.482,2.482,0,0,1,16,14.5Z"/><path d="M17.5,7h3a1,1,0,0,0,0-2h-3a1,1,0,0,0,0,2Z"/><path d="M23,10H19.5a1,1,0,0,0,0,2H23a1,1,0,0,0,0-2Z"/><path d="M22,16H20a1,1,0,0,0,0,2h2a1,1,0,0,0,0-2Z"/></svg>