<svg id="Layer_1" data-name="Layer 1" xmlns="http://www.w3.org/2000/svg" viewBox="15 0 105 100"><defs><style>.cls-1{fill:#ffd400;}.cls-2{fill:#000000;}</style></defs><title>partly-cloudy</title><path class="cls-1" d="M68.42,43a13.35,13.35,0,0,1,21,15.88,17.2,17.2,0,0,1,4.13,5.47,19.77,19.77,0,0,0-30-25.59A19.49,19.49,0,0,1,68.42,43Z"/><path class="cls-2" d="M53,42.3a13.26,13.26,0,0,1,9.35,3.62,15,15,0,0,1,4.41,9.41L67.36,61l5.74.06h.46c.86,0,1.71,0,2.54,0s1.41,0,2,0a10.72,10.72,0,1,1,0,21.44H33.31c-6-.47-10.53-5.05-10.53-10.72a11.43,11.43,0,0,1,2.64-7.46,9,9,0,0,1,6.43-3.2h.25l.16,0,5.16-.52L38,55.37A15.13,15.13,0,0,1,53,42.3m0-6.43a21.54,21.54,0,0,0-21.4,18.78l-.16,0c-9,.54-15.11,8.26-15.11,17.08,0,9.47,7.61,16.57,16.73,17.15h45a17.15,17.15,0,1,0,0-34.3c-1.39,0-3,.09-4.54.09h-.39C72.09,44,64,35.87,53,35.87Z"/><path class="cls-1" d="M102,78.44,99.6,76.1a3.31,3.31,0,0,1-.91-2.3,3.09,3.09,0,0,1,3.14-3.14,2.94,2.94,0,0,1,2.14.91L106.35,74a2.94,2.94,0,0,1,.91,2.14,3.14,3.14,0,0,1-3.1,3.26A2.82,2.82,0,0,1,102,78.44Z"/><path class="cls-1" d="M107.34,47.24h7.54a3.05,3.05,0,0,1,3,3.18,3,3,0,0,1-3,3.06h-7.54a3.18,3.18,0,0,1-2.26-.91,2.74,2.74,0,0,1-1-2.14A3.25,3.25,0,0,1,107.34,47.24Z"/><path class="cls-1" d="M96.55,27.67,102,22.35a2.82,2.82,0,0,1,2.14-.91,3.08,3.08,0,0,1,3.1,3.14,3.41,3.41,0,0,1-.91,2.34L101,32.23a3.72,3.72,0,0,1-2.18.91,3.84,3.84,0,0,1-2.3-.91,3.28,3.28,0,0,1-.83-2.3A3.47,3.47,0,0,1,96.55,27.67Z"/><path class="cls-1" d="M52.8,29.29l-2.42-2.38a3.34,3.34,0,0,1-.91-2.3,3.17,3.17,0,0,1,3.22-3.18,3.36,3.36,0,0,1,2.26.91l2.18,2.42a2.66,2.66,0,0,1,1,2.18,3.23,3.23,0,0,1-3,3.26A3.46,3.46,0,0,1,52.8,29.29Z"/><path class="cls-1" d="M75.27,21.43V13.85a3,3,0,0,1,3.06-3.06,3,3,0,0,1,3.18,3.06v7.58a3.12,3.12,0,1,1-6.23,0Z"/></svg>