<svg id="Lager_1" data-name="Lager 1" xmlns="http://www.w3.org/2000/svg" viewBox="0 0 64 64"><defs><style>.cls-1{fill:#ffd400;}.cls-2{fill:#fff;}</style></defs><path class="cls-1" d="M52.59,28.47a10.54,10.54,0,0,1-2.51,6.85,8.84,8.84,0,0,1-1,1,10.86,10.86,0,0,1-1.17.93h0a7.75,7.75,0,0,0-1.49-.76,8.4,8.4,0,0,0-3-.57,9.75,9.75,0,0,0-1.06.07,1.74,1.74,0,0,1-1.51-.51A1.82,1.82,0,0,1,40.33,34a9,9,0,0,0,0-2.54,8.79,8.79,0,0,0-6.53-7.22,7.58,7.58,0,0,0-1-.18,4.57,4.57,0,0,0-.52-.05,9,9,0,0,1,.76-1.35,9.59,9.59,0,0,1,1-1.29,10.62,10.62,0,0,1,18.5,7.13Z"/><path class="cls-1" d="M42,8.43a1.43,1.43,0,0,0-1.43,1.43v1.8a1.43,1.43,0,0,0,2.85,0V9.86A1.43,1.43,0,0,0,42,8.43Z"/><path class="cls-1" d="M31.09,15.57,29.81,14.3a1.42,1.42,0,0,0-2,2l1.28,1.27a1.39,1.39,0,0,0,1,.42,1.42,1.42,0,0,0,1-.42A1.44,1.44,0,0,0,31.09,15.57Z"/><path class="cls-1" d="M60.58,27h-1.8a1.43,1.43,0,1,0,0,2.85h1.8a1.43,1.43,0,0,0,0-2.85Z"/><path class="cls-1" d="M56.13,14.3a1.43,1.43,0,0,0-2,0l-1.27,1.28a1.41,1.41,0,0,0,0,2,1.39,1.39,0,0,0,1,.42,1.42,1.42,0,0,0,1-.42l1.27-1.28A1.41,1.41,0,0,0,56.13,14.3Z"/><path class="cls-2" d="M32.84,54.9H15.23A12,12,0,0,1,15,30.82a11.9,11.9,0,0,1,5.91,1.41.38.38,0,0,0,.55-.28,10.1,10.1,0,0,1,20,.1,10.33,10.33,0,0,1,0,2.94.37.37,0,0,0,.41.43,10.06,10.06,0,0,1,1.24-.08A9.79,9.79,0,0,1,52.8,46a9.93,9.93,0,0,1-10,8.89Z"/></svg>