<svg id="Bold" xmlns="http://www.w3.org/2000/svg" viewBox="0 0 24 24"><title>weather-cloud</title><path d="M9.25,3a1,1,0,0,0,1-1V1a1,1,0,0,0-2,0V2A1,1,0,0,0,9.25,3Z"/><path d="M3.416,4.83A1,1,0,1,0,4.83,3.416l-.707-.707A1,1,0,0,0,2.709,4.123Z"/><path d="M3,9.25a1,1,0,0,0-1-1H1a1,1,0,0,0,0,2H2A1,1,0,0,0,3,9.25Z"/><path d="M14.377,5.123a1,1,0,0,0,.707-.293l.707-.707a1,1,0,0,0-1.414-1.414l-.707.707a1,1,0,0,0,.707,1.707Z"/><path d="M5.916,11.994a.249.249,0,0,0,.109-.38,4,4,0,0,1,6.343-4.867.253.253,0,0,0,.264.084A8.548,8.548,0,0,1,14.2,6.537a.25.25,0,0,0,.191-.378A6,6,0,1,0,4.279,12.606a.25.25,0,0,0,.346.068A6.939,6.939,0,0,1,5.916,11.994Z"/><path d="M22.094,15.074a.252.252,0,0,1-.1-.193A7,7,0,0,0,8.338,12.84a.249.249,0,0,1-.22.173A5.5,5.5,0,0,0,8.5,24H19a5,5,0,0,0,3.094-8.926ZM22,19a3,3,0,0,1-3,3H8.5a3.5,3.5,0,1,1,.448-6.971.994.994,0,0,0,1.116-.833A5,5,0,0,1,20,15c0,.146-.007.289-.02.433a1,1,0,0,0,.5.959A3.007,3.007,0,0,1,22,19Z"/></svg>