<svg id="Lager_1" data-name="Lager 1" xmlns="http://www.w3.org/2000/svg" viewBox="0 0 64 64">
    <defs>
        <style>.cls-4{fill:#fff;}.cls-7{fill:#1783ff;}</style>
    </defs>
    <path class="cls-4" d="M37.56,42.29H17.29a13.87,13.87,0,1,1,6.49-26.1.43.43,0,0,0,.63-.32,11.63,11.63,0,1,1,23,3.5.42.42,0,0,0,.47.49,11.26,11.26,0,1,1,1.18,22.43Z" />
    <path class="cls-7" d="M47.15,50.25a.56.56,0,0,0-1-.41l-5.08,7.51a2.22,2.22,0,0,0,1.28,3.09,2.39,2.39,0,0,0,3.09-1.28Z" />
    <path class="cls-7" d="M37.53,41.69a.55.55,0,0,0-1-.41l-5.09,7.51a2.23,2.23,0,0,0,1.28,3.09,2.39,2.39,0,0,0,3.09-1.28Z" />
    <path class="cls-7" d="M24.58,48.79a.56.56,0,0,0-1-.42l-5.09,7.52A2.23,2.23,0,0,0,19.76,59a2.39,2.39,0,0,0,3.09-1.28Z" />
</svg>