<svg id="Bold" xmlns="http://www.w3.org/2000/svg" viewBox="0 0 24 24"><title>weather-cloud-snow</title><path d="M20.594,7.074a.252.252,0,0,1-.1-.193A7,7,0,0,0,6.838,4.84a.249.249,0,0,1-.22.173A5.5,5.5,0,0,0,7,16H17.5a5,5,0,0,0,3.094-8.926ZM17.5,14H7a3.5,3.5,0,1,1,.448-6.971A1,1,0,0,0,8.564,6.2,5,5,0,0,1,18.5,7c0,.146-.007.289-.02.433a1,1,0,0,0,.5.959A3,3,0,0,1,17.5,14Z"/><circle cx="7.5" cy="23" r="1"/><circle cx="10" cy="21" r="1"/><circle cx="12.5" cy="23" r="1"/><circle cx="15" cy="21" r="1"/><circle cx="17.5" cy="23" r="1"/><circle cx="7.5" cy="19" r="1"/><circle cx="12.5" cy="19" r="1"/><circle cx="17.5" cy="19" r="1"/></svg>