<svg id="Lager_1" data-name="Lager 1" xmlns="http://www.w3.org/2000/svg" viewBox="0 0 64 64"><defs><style>.cls-1{fill:#fff;}.cls-2{fill:#1783ff;}</style></defs><path class="cls-1" d="M37.56,40H17.29a13.86,13.86,0,1,1,6.49-26.09.43.43,0,0,0,.63-.32,11.63,11.63,0,1,1,23,3.5.42.42,0,0,0,.47.49A11.26,11.26,0,1,1,49.06,40Z"/><path class="cls-2" d="M24.38,55.63H22.06L23.7,54a.86.86,0,0,0-1.21-1.21l-1.64,1.64V52.1a.86.86,0,0,0-1.71,0v2.32L17.5,52.78A.86.86,0,0,0,16.29,54l1.64,1.64H15.62a.86.86,0,1,0,0,1.71h2.31L16.29,59a.85.85,0,0,0,.61,1.45.82.82,0,0,0,.6-.25l1.64-1.64v2.32a.86.86,0,1,0,1.71,0V58.54l1.64,1.64A.85.85,0,0,0,23.7,59l-1.64-1.64h2.32a.86.86,0,0,0,.85-.86A.85.85,0,0,0,24.38,55.63Z"/><path class="cls-2" d="M36.58,48.62H34.26L35.9,47a.86.86,0,1,0-1.21-1.21l-1.64,1.64V45.09a.86.86,0,0,0-1.71,0v2.32L29.7,45.77A.86.86,0,0,0,28.49,47l1.64,1.64H27.81a.85.85,0,0,0-.85.85.86.86,0,0,0,.85.86h2.32L28.49,52a.85.85,0,0,0,.61,1.45.83.83,0,0,0,.6-.25l1.64-1.64v2.32a.86.86,0,1,0,1.71,0V51.53l1.64,1.64A.85.85,0,1,0,35.9,52l-1.64-1.64h2.32a.86.86,0,0,0,.85-.86A.85.85,0,0,0,36.58,48.62Z"/><path class="cls-2" d="M48.38,54.42H46.06l1.64-1.64a.85.85,0,0,0-1.2-1.2l-1.64,1.64V50.9a.86.86,0,1,0-1.71,0v2.32l-1.64-1.64a.85.85,0,0,0-1.21,1.2l1.64,1.64H39.62a.86.86,0,0,0-.85.86.85.85,0,0,0,.85.85h2.32L40.3,57.77a.86.86,0,0,0,0,1.21.86.86,0,0,0,1.21,0l1.64-1.64v2.32a.85.85,0,0,0,.85.85.86.86,0,0,0,.86-.85V57.34L46.5,59a.85.85,0,0,0,1.2,0,.85.85,0,0,0,0-1.21l-1.64-1.64h2.32a.86.86,0,1,0,0-1.71Z"/></svg>