<svg id="Lager_1" data-name="Lager 1" xmlns="http://www.w3.org/2000/svg" viewBox="0 0 64 64"><defs><style>.cls-1{fill:#ffd400;stroke:#ffd400;stroke-miterlimit:10;}</style></defs><circle class="cls-1" cx="32" cy="32" r="16.31"/><path class="cls-1" d="M32,49.74A17.74,17.74,0,1,1,49.74,32,17.76,17.76,0,0,1,32,49.74Zm0-32.63A14.89,14.89,0,1,0,46.89,32,14.91,14.91,0,0,0,32,17.11Z"/><path class="cls-1" d="M32,10.38A1.42,1.42,0,0,1,30.58,9V3.42a1.42,1.42,0,0,1,2.84,0V9A1.42,1.42,0,0,1,32,10.38Z"/><path class="cls-1" d="M32,62a1.42,1.42,0,0,1-1.42-1.42V55.05a1.42,1.42,0,1,1,2.84,0v5.53A1.42,1.42,0,0,1,32,62Z"/><path class="cls-1" d="M15.7,17.13a1.41,1.41,0,0,1-1-.42L10.79,12.8a1.42,1.42,0,0,1,2-2l3.91,3.91a1.43,1.43,0,0,1-1,2.43Z"/><path class="cls-1" d="M52.21,53.63a1.42,1.42,0,0,1-1-.42L47.29,49.3a1.42,1.42,0,0,1,2-2l3.91,3.91a1.41,1.41,0,0,1,0,2A1.39,1.39,0,0,1,52.21,53.63Z"/><path class="cls-1" d="M9,33.42H3.42a1.42,1.42,0,1,1,0-2.84H9a1.42,1.42,0,1,1,0,2.84Z"/><path class="cls-1" d="M60.58,33.42H55.05a1.42,1.42,0,1,1,0-2.84h5.53a1.42,1.42,0,0,1,0,2.84Z"/><path class="cls-1" d="M11.79,53.63a1.43,1.43,0,0,1-1-2.43l3.91-3.91a1.42,1.42,0,0,1,2,2L12.8,53.21A1.42,1.42,0,0,1,11.79,53.63Z"/><path class="cls-1" d="M48.3,17.13a1.43,1.43,0,0,1-1-2.43l3.91-3.91a1.42,1.42,0,0,1,2,2L49.3,16.71A1.41,1.41,0,0,1,48.3,17.13Z"/></svg>