<svg id="Bold" xmlns="http://www.w3.org/2000/svg" viewBox="0 0 24 24"><title>weather-cloud-rain-thunder</title><path d="M20.844,7.074a.252.252,0,0,1-.1-.193A7,7,0,0,0,7.088,4.84a.249.249,0,0,1-.22.173A5.5,5.5,0,0,0,7.25,16h10.5a5,5,0,0,0,3.094-8.926ZM20.75,11a3,3,0,0,1-3,3H7.25A3.5,3.5,0,1,1,7.7,7.029,1,1,0,0,0,8.814,6.2,5,5,0,0,1,18.75,7c0,.146-.007.289-.02.433a1,1,0,0,0,.5.959A3.007,3.007,0,0,1,20.75,11Z"/><path d="M8.289,19.408A.75.75,0,0,0,8.3,20.6l.953.714a.25.25,0,0,1,0,.4l-1.217.946a.75.75,0,0,0,.922,1.184l2.25-1.75A.75.75,0,0,0,11.2,20.9l-.953-.714a.25.25,0,0,1,0-.4l1.217-.946a.75.75,0,0,0-.922-1.184Z"/><path d="M6.72,17.47,1.47,22.72a.75.75,0,1,0,1.06,1.06l5.25-5.25a.749.749,0,0,0,.028-1.03.4.4,0,0,0-.028-.03A.749.749,0,0,0,6.72,17.47Z"/><path d="M16.72,17.97l-4.75,4.75a.75.75,0,1,0,1.06,1.06l4.75-4.75a.75.75,0,0,0-1.06-1.06Z"/></svg>