<svg id="Lager_1" data-name="Lager 1" xmlns="http://www.w3.org/2000/svg" viewBox="0 0 64 64"><defs><style>.cls-1{fill:#fff;}.cls-2{fill:#ffd400;}</style></defs><path class="cls-1" d="M49.06,40.53h0c-17.69.67-23.7.08-32.36.06C5,40.59,3.63,32,3.43,27.23A14,14,0,0,1,17,12.8a13.79,13.79,0,0,1,6.8,1.63.43.43,0,0,0,.63-.32,11.63,11.63,0,1,1,23,3.5.44.44,0,0,0,.47.5,9.77,9.77,0,0,1,1.44-.1A11.26,11.26,0,0,1,60.53,30.29,11.42,11.42,0,0,1,49.06,40.53Z"/><path class="cls-2" d="M22.29,58.07l4.95-11.94A.84.84,0,0,0,26.46,45H22.07a2.46,2.46,0,0,1-2.28-3.38L24.44,30a1.33,1.33,0,0,1,1.23-.83h6.47a1.32,1.32,0,0,1,1.23,1.8l-2.75,7a.63.63,0,0,0,.6.87h4.86a2.07,2.07,0,0,1,1.63,3.33L24.4,59.29A1.23,1.23,0,0,1,22.29,58.07Z"/></svg>