<svg id="Bold" xmlns="http://www.w3.org/2000/svg" viewBox="0 0 24 24"><title>weather-cloud-hail</title><path d="M21.094,7.074a.252.252,0,0,1-.1-.193A7,7,0,0,0,7.338,4.84a.249.249,0,0,1-.22.173A5.5,5.5,0,0,0,7.5,16H18a5,5,0,0,0,3.094-8.926ZM21,11a3,3,0,0,1-3,3H7.5a3.5,3.5,0,1,1,.448-6.971A1,1,0,0,0,9.064,6.2,5,5,0,0,1,19,7c0,.146-.007.289-.02.433a1,1,0,0,0,.5.959A3.007,3.007,0,0,1,21,11Z"/><circle cx="2" cy="23" r="1"/><circle cx="7" cy="23" r="1"/><circle cx="12" cy="23" r="1"/><path d="M3.47,21.53a.748.748,0,0,0,1.06,0l3-3a.75.75,0,0,0-1.06-1.06l-3,3A.749.749,0,0,0,3.47,21.53Z"/><path d="M12.53,18.53a.75.75,0,0,0-1.06-1.06l-3,3a.75.75,0,1,0,1.06,1.06Z"/><path d="M17.53,17.47a.749.749,0,0,0-1.06,0l-3,3a.75.75,0,1,0,1.06,1.06l3-3A.749.749,0,0,0,17.53,17.47Z"/></svg>