<svg id="Bold" xmlns="http://www.w3.org/2000/svg" viewBox="0 0 24 24"><title>weather-cloud-rain-drops</title><path d="M4.443,15.579l.02-.027a.03.03,0,0,0,0-.026.032.032,0,0,0-.016-.02A4.5,4.5,0,0,1,6.581,7h0a1,1,0,0,0,.986-.834,5,5,0,0,1,9.647-.831,1,1,0,0,0,.9.667,2.5,2.5,0,0,1,2.232,3.365,1,1,0,0,0,.366,1.169,3,3,0,0,1-.156,5.027l0,.005v.006l0,0,0,0q.524.759.937,1.446a.246.246,0,0,0,.162.115.25.25,0,0,0,.2-.039,5,5,0,0,0,.66-7.661.252.252,0,0,1-.071-.218A4.6,4.6,0,0,0,22.5,8.5a4.491,4.491,0,0,0-3.517-4.393.248.248,0,0,1-.171-.136,7,7,0,0,0-12.988.916.251.251,0,0,1-.205.173,6.5,6.5,0,0,0-2.44,12.025A.249.249,0,0,0,3.521,17Q3.927,16.325,4.443,15.579Z"/><path d="M15.5,17c0-1.278-1.522-3.621-2.177-4.568a1.038,1.038,0,0,0-1.646,0C11.022,13.379,9.5,15.722,9.5,17a3,3,0,0,0,6,0Zm-4,0a6.062,6.062,0,0,1,.782-1.773.252.252,0,0,1,.436,0A6.068,6.068,0,0,1,13.5,17a1,1,0,0,1-2,0Z"/><path d="M19.323,16.432a1.038,1.038,0,0,0-1.646,0c-.655.947-2.177,3.29-2.177,4.568a3,3,0,0,0,6,0C21.5,19.722,19.978,17.379,19.323,16.432ZM18.5,22a1,1,0,0,1-1-1,6.062,6.062,0,0,1,.782-1.773.252.252,0,0,1,.436,0A6.068,6.068,0,0,1,19.5,21,1,1,0,0,1,18.5,22Z"/><path d="M7.323,16.432a1.038,1.038,0,0,0-1.646,0C5.022,17.379,3.5,19.722,3.5,21a3,3,0,0,0,6,0C9.5,19.722,7.978,17.379,7.323,16.432ZM6.5,22a1,1,0,0,1-1-1,6.062,6.062,0,0,1,.782-1.773.252.252,0,0,1,.436,0A6.068,6.068,0,0,1,7.5,21,1,1,0,0,1,6.5,22Z"/></svg>